<?xml version="1.0" standalone="no"?><!DOCTYPE svg PUBLIC "-//W3C//DTD SVG 1.1//EN" "http://www.w3.org/Graphics/SVG/1.1/DTD/svg11.dtd"><svg t="1522641399893" class="icon" style="" viewBox="0 0 1024 1024" version="1.1" xmlns="http://www.w3.org/2000/svg" p-id="1067" xmlns:xlink="http://www.w3.org/1999/xlink" width="200" height="200"><defs><style type="text/css"></style></defs><path d="M871.253642 47.12632 183.786305 47.12632c-57.672514 0-104.425328 46.752814-104.425328 104.426351l0 687.46836c0 57.672514 46.752814 104.425328 104.425328 104.425328l687.467337 0c57.672514 0 104.425328-46.752814 104.425328-104.425328L975.67897 151.552671C975.67897 93.879134 928.927179 47.12632 871.253642 47.12632zM527.519973 783.858688c-159.373801 0-288.572348-129.198547-288.572348-288.572348 0-159.374824 129.198547-288.572348 288.572348-288.572348s288.572348 129.197524 288.572348 288.572348C816.092321 654.66014 686.893774 783.858688 527.519973 783.858688z" p-id="1068" fill="#2c2c2c"></path><path d="M669.065733 470.814995l-209.089086-159.113881-2.483564-1.901303c-5.608741-4.771677-12.639878-7.964392-20.571525-7.964392-17.797341 0-32.242332 14.44499-32.242332 32.242332l0 322.420247c0 17.798365 14.44499 32.242332 32.242332 32.242332 7.931646 0 14.960737-3.191692 20.571525-7.964392l2.483564-1.899256 209.089086-159.113881 2.870374-2.160199c5.608741-5.804193 9.123798-13.638625 9.123798-22.343891 0-8.704243-3.515057-16.538675-9.123798-22.343891L669.065733 470.814995 669.065733 470.814995z" p-id="1069" fill="#2c2c2c"></path></svg>