<?xml version="1.0" standalone="no"?><!DOCTYPE svg PUBLIC "-//W3C//DTD SVG 1.1//EN" "http://www.w3.org/Graphics/SVG/1.1/DTD/svg11.dtd"><svg t="1521786717739" class="icon" style="" viewBox="0 0 1024 1024" version="1.1" xmlns="http://www.w3.org/2000/svg" p-id="39069" xmlns:xlink="http://www.w3.org/1999/xlink" width="16" height="16"><defs><style type="text/css"></style></defs><path d="M362.976 804.704h141.12c79.616 0 135.776-10.24 168.384-30.784 32.64-20.48 48.96-54.496 48.96-101.984 0-47.904-15.584-82.016-46.72-102.304-31.168-20.288-85.92-30.432-164.288-30.432h-147.456v265.504z m0-345.152h132.832c60.16 0 104.768-9.728 133.76-29.12 29.056-19.456 43.552-49.44 43.552-90.048 0-38.4-13.12-67.872-39.392-88.384-26.272-20.48-64-30.752-113.12-30.752h-157.632v238.304zM545.376 896H236.48c-14.816 0-25.92-3.872-33.344-11.648-7.424-7.776-11.136-19.424-11.136-34.976 0-17.28 15.04-44.672 50.24-44.672h20.96V221.248H242.24c-32.64 0-46.4-28.928-46.4-46.624 0-15.104 3.776-26.656 11.424-34.656 7.616-8 18.624-11.968 33.024-11.968h266.336c89.824 0 158.24 17.792 205.248 53.44 47.04 35.584 70.56 87.296 70.56 155.072 0 34.112-7.2 63.904-21.6 89.376-14.4 25.472-35.84 46.4-64.192 62.816 45.76 16.832 79.744 40.32 101.984 70.56 22.24 30.24 33.376 68.64 33.376 115.264 0 39.296-9.536 75.136-28.608 107.52-19.072 32.352-45.952 58.88-80.704 79.616a232.64 232.64 0 0 1-69.28 26.24c-25.408 5.408-61.44 8.096-108.032 8.096z" fill="#2c2c2c" p-id="39070"></path></svg>