<?xml version="1.0" standalone="no"?><!DOCTYPE svg PUBLIC "-//W3C//DTD SVG 1.1//EN" "http://www.w3.org/Graphics/SVG/1.1/DTD/svg11.dtd"><svg t="1522657644569" class="icon" style="" viewBox="0 0 1024 1024" version="1.1" xmlns="http://www.w3.org/2000/svg" p-id="3662" xmlns:xlink="http://www.w3.org/1999/xlink" width="16" height="16"><defs><style type="text/css"></style></defs><path d="M959.552 135.936c-0.064-21.76-16.704-39.424-37.184-39.424H102.528c-20.544 0-37.184 17.664-37.184 39.424v750.528c0 21.76 16.576 39.36 37.12 39.36l0.064 0.128h819.84c20.48-0.064 37.12-17.664 37.12-39.424v-0.064h0.064V135.936z m-75.328 710.976H140.416v-87.36c7.104-20.032 31.552-86.272 67.776-151.936 51.712-93.696 104.576-145.344 148.992-145.344 59.904 0 125.824 94.656 185.664 266.496l26.88 77.44 39.936-70.72a286.72 286.72 0 0 1 38.656-50.368c19.52-20.16 49.664-44.288 82.368-44.288 22.144 0 43.968 10.688 66.688 32.64 29.76 28.8 59.008 75.52 86.848 138.816v34.624z m0.768-188.224a333.568 333.568 0 0 0-37.44-43.648c-36.544-35.392-75.904-53.312-116.928-53.312-46.272 0-93.184 23.616-135.808 68.288l-6.208 6.72c-30.4-75.968-61.952-133.696-95.744-175.424-41.984-51.776-87.616-78.016-135.68-78.016-74.048 0-145.792 62.08-213.312 184.448l-3.968 7.36V175.488h745.152v483.2h-0.064z" p-id="3663" fill="#2c2c2c"></path><path d="M676.224 390.784c6.208 7.168 13.568 13.184 21.824 17.536a70.912 70.912 0 0 0 83.2-12.032 79.36 79.36 0 0 0 17.984-26.048 83.328 83.328 0 0 0 1.664-61.056 79.232 79.232 0 0 0-17.152-27.712 73.856 73.856 0 0 0-28.48-18.688 70.656 70.656 0 0 0-55.296 3.2 74.56 74.56 0 0 0-23.424 18.24 80.576 80.576 0 0 0-19.648 53.44 82.176 82.176 0 0 0 19.328 53.12z" p-id="3664" fill="#2c2c2c"></path></svg>