<?xml version="1.0" standalone="no"?><!DOCTYPE svg PUBLIC "-//W3C//DTD SVG 1.1//EN" "http://www.w3.org/Graphics/SVG/1.1/DTD/svg11.dtd"><svg t="1521786790860" class="icon" style="" viewBox="0 0 1024 1024" version="1.1" xmlns="http://www.w3.org/2000/svg" p-id="40405" xmlns:xlink="http://www.w3.org/1999/xlink" width="16" height="16"><defs><style type="text/css"></style></defs><path d="M832 768h-64c-83.52 0-153.728-53.568-180.224-128H832c35.392 0 64-28.608 64-64v-128c0-35.392-28.608-64-64-64H587.776c26.496-74.368 96.704-128 180.224-128h64c105.984 0 192 85.952 192 192v128c0 106.048-86.016 192-192 192zM256 512a64 64 0 0 1 64-64h384c35.392 0 64 28.608 64 64s-28.608 64-64 64H320a64 64 0 0 1-64-64z m-128-64v128a64 64 0 0 0 64 64h244.224c-26.432 74.432-96.768 128-180.224 128H192a192 192 0 0 1-192-192v-128a192 192 0 0 1 192-192h64c83.456 0 153.792 53.632 180.224 128H192a64 64 0 0 0-64 64z" fill="#2c2c2c" p-id="40406"></path></svg>