<?xml version="1.0" standalone="no"?><!DOCTYPE svg PUBLIC "-//W3C//DTD SVG 1.1//EN" "http://www.w3.org/Graphics/SVG/1.1/DTD/svg11.dtd"><svg t="1522657142478" class="icon" style="" viewBox="0 0 1024 1024" version="1.1" xmlns="http://www.w3.org/2000/svg" p-id="3180" xmlns:xlink="http://www.w3.org/1999/xlink" width="16" height="16"><defs><style type="text/css"></style></defs><path d="M661.76 65.28c-64 0-119.04 38.4-149.76 94.72-30.08-56.32-85.76-94.72-149.76-94.72H65.92v835.84h272.64c51.2 0 135.68 17.28 149.12 57.6 12.8 0 19.84 0.64 49.28 0v-0.64c13.44-40.32 97.92-57.536 148.48-57.536h272.64V65.28h-296.32zM338.56 843.52H115.84V122.88h247.68c46.72 0 94.08 27.52 113.92 70.4v679.872c-30.208-29.248-95.424-30.784-138.88-29.632z m570.24-0.64h-223.36c-43.456-1.152-110.144 0.512-139.456 30.528V193.28h1.216c19.84-42.88 67.2-70.4 113.92-70.4h247.68v720z" p-id="3181" fill="#2c2c2c"></path></svg>