<?xml version="1.0" standalone="no"?><!DOCTYPE svg PUBLIC "-//W3C//DTD SVG 1.1//EN" "http://www.w3.org/Graphics/SVG/1.1/DTD/svg11.dtd"><svg t="1521787233045" class="icon" style="" viewBox="0 0 1024 1024" version="1.1" xmlns="http://www.w3.org/2000/svg" p-id="43422" xmlns:xlink="http://www.w3.org/1999/xlink" width="14" height="14"><defs><style type="text/css"></style></defs><path d="M109.024 949.056l0-392.64 211.776 0 0 392.64 108.128 0 0-897.728-108.128 0 0 353.248-211.776 0 0-353.248-108.096 0 0 897.76 108.096-0.032z" p-id="43423" fill="#2c2c2c"></path><path d="M649.088 949.056l0-374.848 21.888 0c24.8 0 42.912 3.36 54.368 10.08 11.488 6.784 22.304 19.2 32.544 37.344 10.176 18.176 29.152 62.112 56.928 131.904l78.176 195.392 129.184 0-65.312-175.2c-25.856-69.792-46.368-118.304-61.504-145.632-15.264-27.36-34.592-52.576-57.888-75.328 46.88-11.488 82.272-39.04 105.888-83.04 23.616-43.744 35.424-99.424 35.424-166.688 0-53.088-7.808-100.224-23.392-141.472s-36.288-69.92-62.24-86.176c-25.952-15.936-67.52-24.032-124.704-24.032l-227.456 0 0 897.76 108.128-0.032zM649.088 203.104l84.352 0c43.808 0 70.016 0.992 78.848 3.04 17.504 4.928 31.104 16.64 40.672 35.296 9.632 18.528 14.496 42.912 14.496 73.184 0 26.944-3.712 49.344-11.008 67.392-7.264 17.888-17.408 30.592-30.304 37.856-12.96 7.392-45.248 11.104-97.12 11.104l-79.968 0 0-227.84 0.032 0z" p-id="43424" fill="#2c2c2c"></path></svg>