<?xml version="1.0" standalone="no"?><!DOCTYPE svg PUBLIC "-//W3C//DTD SVG 1.1//EN" "http://www.w3.org/Graphics/SVG/1.1/DTD/svg11.dtd"><svg t="1522656495027" class="icon" style="" viewBox="0 0 1024 1024" version="1.1" xmlns="http://www.w3.org/2000/svg" p-id="1423" xmlns:xlink="http://www.w3.org/1999/xlink" width="18" height="18"><defs><style type="text/css"></style></defs><path d="M320 254.016h640V320H320zM320 768h640v65.984H320zM320 510.016h640V576H320zM130.944 75.776h78.592v231.744h-52.16V117.248h-56.832l30.4-41.472zM140.672 785.408H90.24c2.624-17.088 9.92-30.848 21.952-41.28 16.768-14.528 37.824-21.76 63.168-21.76 22.656 0 41.6 6.08 56.896 18.112s22.976 26.432 22.976 43.008c0 10.304-3.328 19.712-10.048 28.16s-16.384 15.36-29.184 20.608c16.768 4.224 29.824 11.584 39.296 22.016s14.144 22.72 14.144 36.928c0 20.8-9.152 38.464-27.392 52.864s-41.472 21.632-69.76 21.632c-26.752 0-48.576-6.784-65.408-20.352-16.896-13.632-26.112-32.128-27.776-55.552h51.968a41.664 41.664 0 0 0 14.912 26.752c7.68 5.824 17.408 8.768 29.184 8.768 12.224 0 22.4-3.328 30.464-9.92s12.096-14.72 12.096-24.256c0-10.496-5.44-19.392-16.32-26.624s-26.56-11.008-47.04-11.2v-37.824a99.84 99.84 0 0 0 28.224-4.992c6.208-2.432 11.008-5.824 14.464-10.112s5.184-8.896 5.184-13.696a19.072 19.072 0 0 0-7.872-15.68 32.192 32.192 0 0 0-20.608-6.272 37.568 37.568 0 0 0-20.416 5.76 30.08 30.08 0 0 0-12.672 14.912zM134.656 469.248h-51.2c1.344-22.592 10.688-40.384 28.032-53.312s39.552-19.52 66.688-19.52c16.768 0 31.552 2.688 44.352 8.064 12.8 5.312 23.04 13.12 30.72 23.232a50.56 50.56 0 0 1 11.52 30.848c0 12.416-4.672 25.792-13.952 40.128s-26.368 31.296-51.072 50.88l-30.976 24.768h98.304v36.928H76.032v-19.072L161.344 526.08c20.608-15.872 34.368-28.608 41.152-38.272 6.784-9.6 10.24-18.368 10.24-26.112a24.064 24.064 0 0 0-10.624-20.032 44.48 44.48 0 0 0-27.264-7.936 41.984 41.984 0 0 0-28.096 9.536 34.56 34.56 0 0 0-12.096 25.984z" p-id="1424" fill="#2c2c2c"></path></svg>