<?xml version="1.0" standalone="no"?><!DOCTYPE svg PUBLIC "-//W3C//DTD SVG 1.1//EN" "http://www.w3.org/Graphics/SVG/1.1/DTD/svg11.dtd"><svg t="1521786336573" class="icon" style="" viewBox="0 0 1024 1024" version="1.1" xmlns="http://www.w3.org/2000/svg" p-id="37106" xmlns:xlink="http://www.w3.org/1999/xlink" width="18" height="18"><defs><style type="text/css"></style></defs><path d="M823.281 220.792c2.127 4.729 3.832 10.248 5.115 16.541 1.318 6.311 1.969 12.867 1.969 19.688s-1.318 13.641-3.938 20.479c-2.637 6.82-6.838 13.395-12.604 19.688-6.293 6.293-11.936 11.813-16.928 16.523-4.992 4.729-9.316 8.93-12.99 12.604-4.201 4.201-8.139 7.875-11.813 11.021l-147.27-147.252c6.293-5.766 13.781-12.727 22.447-20.865s15.873-14.555 21.656-19.301c7.348-5.766 14.959-9.826 22.834-12.199 7.875-2.355 15.627-3.41 23.238-3.146s14.959 1.441 22.043 3.551c7.084 2.092 13.254 4.447 18.51 7.084 11.021 5.783 23.221 15.873 36.615 30.305 13.398 14.447 23.769 29.529 31.116 45.279zM209.823 605.085c3.146-3.164 10.494-10.635 22.043-22.447s25.998-26.385 43.313-43.699l57.498-57.48 63.773-63.791 169.312-169.313 147.27 148.043L543.719 565.71l-63 63.773c-20.988 20.479-39.902 39.252-56.707 56.303-16.787 17.068-30.709 31.113-41.73 42.135s-17.578 17.332-19.688 18.896c-5.238 4.729-11.285 9.721-18.105 14.959-6.82 5.256-13.922 9.457-21.27 12.604-7.348 3.674-18.105 8.139-32.291 13.395-14.168 5.238-29.004 10.354-44.49 15.346s-30.182 9.334-44.104 13.008c-13.904 3.656-24.275 6.029-31.096 7.084-14.186 1.564-23.625-0.527-28.354-6.311-4.729-5.766-6.029-15.486-3.938-29.127 1.055-7.348 3.551-17.982 7.488-31.904a3579.677 3579.677 0 0 1 12.586-43.313c4.465-14.959 8.789-28.723 13.008-41.326 4.201-12.604 7.611-21.27 10.23-25.998 3.146-7.348 6.697-14.027 10.635-20.074 3.94-6.03 9.582-12.727 16.93-20.075z m262.582 148.518h70.417v70.102h-70.417v-70.102z m143.085 0h70.418v70.102H615.49v-70.102z m143.649 0h70.418v70.102h-70.418v-70.102z m0 0" fill="#2c2c2c" p-id="37107"></path></svg>