<?xml version="1.0" standalone="no"?><!DOCTYPE svg PUBLIC "-//W3C//DTD SVG 1.1//EN" "http://www.w3.org/Graphics/SVG/1.1/DTD/svg11.dtd"><svg t="1521786833007" class="icon" style="" viewBox="0 0 1024 1024" version="1.1" xmlns="http://www.w3.org/2000/svg" p-id="40644" xmlns:xlink="http://www.w3.org/1999/xlink" width="14" height="14"><defs><style type="text/css"></style></defs><path d="M518.4 819.2c0-12.8 12.8-25.6 44.8-44.8 153.6-108.8 224-204.8 224-275.2 0-38.4-25.6-70.4-70.4-83.2-70.4-25.6-96-70.4-96-115.2 0-38.4 19.2-134.4 134.4-134.4 89.6 0 204.8 64 204.8 217.6 0 160-147.2 326.4-352 473.6-12.8 12.8-25.6 12.8-32 12.8-12.8 0-25.6-6.4-38.4-19.2C524.8 832 518.4 825.6 518.4 819.2zM64 819.2c0-12.8 12.8-25.6 44.8-44.8 153.6-108.8 224-204.8 224-275.2 0-38.4-25.6-70.4-70.4-83.2C198.4 390.4 166.4 345.6 166.4 294.4c0-38.4 19.2-134.4 134.4-134.4 89.6 0 204.8 64 204.8 217.6 0 160-147.2 326.4-352 473.6-12.8 12.8-25.6 12.8-38.4 12.8C96 864 64 832 64 819.2z" p-id="40645" fill="#2c2c2c"></path></svg>