<?xml version="1.0" standalone="no"?><!DOCTYPE svg PUBLIC "-//W3C//DTD SVG 1.1//EN" "http://www.w3.org/Graphics/SVG/1.1/DTD/svg11.dtd"><svg t="1522656692568" class="icon" style="" viewBox="0 0 1024 1024" version="1.1" xmlns="http://www.w3.org/2000/svg" p-id="2377" xmlns:xlink="http://www.w3.org/1999/xlink" width="18" height="18"><defs><style type="text/css"></style></defs><path d="M320 192h640v65.984H320zM320 830.016h640V896H320zM320 510.016h640V576H320z" p-id="2378" fill="#2c2c2c"></path><path d="M192 192m-64 0a64 64 0 1 0 128 0 64 64 0 1 0-128 0Z" p-id="2379" fill="#2c2c2c"></path><path d="M128 512a64 63.296 0 1 0 128 0 64 63.296 0 1 0-128 0Z" p-id="2380" fill="#2c2c2c"></path><path d="M128 832a64 61.952 0 1 0 128 0 64 61.952 0 1 0-128 0Z" p-id="2381" fill="#2c2c2c"></path></svg>