<?xml version="1.0" standalone="no"?><!DOCTYPE svg PUBLIC "-//W3C//DTD SVG 1.1//EN" "http://www.w3.org/Graphics/SVG/1.1/DTD/svg11.dtd"><svg t="1522656952873" class="icon" style="" viewBox="0 0 1024 1024" version="1.1" xmlns="http://www.w3.org/2000/svg" p-id="2780" xmlns:xlink="http://www.w3.org/1999/xlink" width="15" height="15"><defs><style type="text/css"></style></defs><path d="M842.88 599.68h-96.192c-3.968-5.952-8-9.792-11.84-15.68-33.28-41.28-94.208-80.576-178.752-121.792-76.48-37.248-127.552-68.736-151.104-90.304-23.552-21.632-35.392-51.072-35.392-86.4 0-39.232 15.744-70.656 49.152-92.288 33.344-21.568 76.544-33.344 129.536-33.344 80.512 0 145.344 17.664 198.4 54.976V93.12c-39.296-21.632-104.128-31.424-188.544-31.424-88.384 0-161.024 21.568-217.984 62.848-56.96 41.28-86.4 98.112-86.4 170.816 0 47.168 13.696 90.304 41.216 127.68 27.584 37.184 84.48 76.48 170.88 119.68 47.104 23.616 82.496 41.28 107.968 56.96H181.12v66.624h469.312c11.904 19.776 17.6 39.296 17.6 62.912 0 86.464-60.864 129.472-182.592 129.472-39.232 0-82.432-7.744-125.696-21.504-45.12-15.68-80.448-33.408-105.984-57.088v127.808c21.568 13.696 54.912 25.344 100.096 35.328a575.104 575.104 0 0 0 119.808 13.696c98.176 0 174.784-19.584 229.632-60.8 55.04-41.28 82.56-98.176 82.56-174.656 0-19.776-3.968-37.44-7.872-55.168h64.832V599.68z" p-id="2781" fill="#2c2c2c"></path></svg>