<?xml version="1.0" standalone="no"?><!DOCTYPE svg PUBLIC "-//W3C//DTD SVG 1.1//EN" "http://www.w3.org/Graphics/SVG/1.1/DTD/svg11.dtd"><svg t="1522657438995" class="icon" style="" viewBox="0 0 1024 1024" version="1.1" xmlns="http://www.w3.org/2000/svg" p-id="3512" xmlns:xlink="http://www.w3.org/1999/xlink" width="16" height="16"><defs><style type="text/css"></style></defs><path d="M788.928 301.504h-136.96V181.696l136.96 119.808zM202.816 888.96V128.768h380.032v207.296c0 19.136 15.488 34.56 34.56 34.56h207.36v518.336H202.816z m656.512 69.056c19.136 0 34.56-15.424 34.56-34.496V301.504L617.408 59.648H168.256a34.56 34.56 0 0 0-34.56 34.56V923.52a34.56 34.56 0 0 0 34.56 34.496h691.072z" p-id="3513" fill="#2c2c2c"></path><path d="M330.88 721.664l115.712 115.712-38.592 38.656-154.24-154.368 154.24-154.304 38.592 38.656zM793.728 721.664l-154.304 154.368-38.528-38.656 115.712-115.712-115.712-115.648 38.528-38.656z" p-id="3514" fill="#2c2c2c"></path></svg>