<?xml version="1.0" standalone="no"?><!DOCTYPE svg PUBLIC "-//W3C//DTD SVG 1.1//EN" "http://www.w3.org/Graphics/SVG/1.1/DTD/svg11.dtd"><svg t="1523945033446" class="icon" style="" viewBox="0 0 1701 1024" version="1.1" xmlns="http://www.w3.org/2000/svg" p-id="2491" xmlns:xlink="http://www.w3.org/1999/xlink" width="265.78125" height="160"><defs><style type="text/css"></style></defs><path d="M1654.390255 144.567705a85.995533 85.995533 0 0 0-89.066802 6.142538l-204.751269 146.397157a255.939086 255.939086 0 0 0-24.570152 22.52264V85.189837a88.043046 88.043046 0 0 0-94.185584-84.971777H90.090558A88.043046 88.043046 0 0 0 0 85.189837v853.812792a88.043046 88.043046 0 0 0 90.090558 84.971777h1151.72589a88.043046 88.043046 0 0 0 89.066802-84.971777V704.562426a256.962843 256.962843 0 0 0 24.570152 22.52264l204.751269 146.397157a85.995533 85.995533 0 0 0 136.159594-70.639188V221.349431a85.995533 85.995533 0 0 0-41.97401-76.781726z m-739.152082 409.502538L557.947209 716.847502A47.092792 47.092792 0 0 1 511.878173 716.847502a41.97401 41.97401 0 0 1-21.498883-35.831472V341.128923A41.97401 41.97401 0 0 1 511.878173 307.344964a47.092792 47.092792 0 0 1 44.021523 0l358.314721 170.96731a41.97401 41.97401 0 0 1 0 76.781726z" p-id="2492" fill="#2c2c2c"></path></svg>